<?xml version="1.0" standalone="no"?><!DOCTYPE svg PUBLIC "-//W3C//DTD SVG 1.1//EN" "http://www.w3.org/Graphics/SVG/1.1/DTD/svg11.dtd"><svg class="icon" height="512" viewBox="0 0 1024 1024" version="1.1" xmlns="http://www.w3.org/2000/svg"><path d="M924.140665 828.41344l0 34.409694L820.908512 862.823134l0-34.409694-34.409694 0 0 34.409694-68.821435 0 0-34.409694-34.409694 0 0 34.409694-68.768223 0 0-34.409694L442.443831 828.41344l0 34.409694L304.855196 862.823134l0-34.409694-34.410718 0 0 34.409694L132.801609 862.823134l0-34.409694-34.409694 0c-18.97619 0-34.409694-15.435551-34.409694-34.410718l0-619.284445c0-18.977213 15.434527-34.409694 34.409694-34.409694l516.106528 0L614.498442 105.895819l68.768223 0 0 34.411741 34.409694 0L717.676359 105.895819l68.821435 0 0 34.411741 34.409694 0L820.907489 105.895819l68.820412 0 0 34.411741 34.411741 0c18.97619 0 34.409694 15.433504 34.409694 34.409694l0 619.284445C958.550359 812.977889 943.116855 828.41344 924.140665 828.41344L924.140665 828.41344zM132.801609 174.717254l-34.409694 0 0 34.410718 34.409694 0L132.801609 174.717254 132.801609 174.717254zM132.801609 243.538689l-34.409694 0 0 34.409694 34.409694 0L132.801609 243.538689 132.801609 243.538689zM132.801609 312.360124l-34.409694 0 0 34.356482 34.409694 0L132.801609 312.360124 132.801609 312.360124zM132.801609 381.128347l-34.409694 0 0 34.409694 34.409694 0L132.801609 381.128347 132.801609 381.128347zM132.801609 518.771217l-34.409694 0 0 240.820788 34.409694 0L132.801609 518.771217 132.801609 518.771217zM201.623044 174.717254l-34.409694 0 0 34.410718 34.409694 0L201.623044 174.717254 201.623044 174.717254zM201.623044 725.180264l-34.409694 0 0 34.411741 34.409694 0L201.623044 725.180264 201.623044 725.180264zM270.444479 174.717254l-34.409694 0 0 34.410718 34.409694 0L270.444479 174.717254 270.444479 174.717254zM270.444479 725.180264l-34.409694 0 0 34.411741 34.409694 0L270.444479 725.180264 270.444479 725.180264zM339.265914 174.717254l-34.410718 0 0 34.410718 34.410718 0L339.265914 174.717254 339.265914 174.717254zM476.855572 690.77057c-18.97619 0-34.410718 15.434527-34.410718 34.409694 0 19.029402 15.435551 34.411741 34.410718 34.411741 19.029402 0 34.409694-15.382339 34.409694-34.411741C511.265266 706.205097 495.884974 690.77057 476.855572 690.77057L476.855572 690.77057zM924.140665 346.716606c0-18.97619-15.435551-34.356482-34.411741-34.356482l-309.642223 0c-19.029402 0-34.409694 15.380292-34.409694 34.356482l0 240.873999c0 18.97619 15.380292 34.410718 34.409694 34.410718l309.642223 0c18.97619 0 34.411741-15.435551 34.411741-34.410718L924.140665 346.716606 924.140665 346.716606zM855.31923 587.591629 614.498442 587.591629c-19.029402 0-34.410718-15.434527-34.410718-34.409694L580.087725 381.128347c0-18.977213 15.381315-34.411741 34.410718-34.411741l240.820788 0c18.977213 0 34.409694 15.435551 34.409694 34.411741L889.728924 553.181935C889.728924 572.157101 874.29542 587.591629 855.31923 587.591629L855.31923 587.591629zM683.266665 381.128347l-68.768223 0 0 68.820412 68.768223 0L683.266665 381.128347 683.266665 381.128347zM820.908512 381.128347 717.676359 381.128347l0 68.820412 103.232153 0L820.908512 381.128347 820.908512 381.128347zM820.908512 484.359476 614.498442 484.359476l0 68.821435 206.41007 0L820.908512 484.359476 820.908512 484.359476z" /></svg>